<svg width="25" height="24" viewBox="0 0 25 24" fill="none" xmlns="http://www.w3.org/2000/svg">
<g id="UI icon/upload/filled">
<path id="Union" d="M17.7071 9.2905C18.0976 9.68103 18.0976 10.3142 17.7071 10.7047C17.3166 11.0952 16.6834 11.0952 16.2929 10.7047L13.502 7.91377V15C13.502 15.5523 13.0542 16 12.502 16C11.9497 16 11.502 15.5523 11.502 15V7.91368L8.70897 10.7067C8.31845 11.0972 7.68528 11.0972 7.29475 10.7067C6.90423 10.3161 6.90423 9.68298 7.29475 9.29245L11.7948 4.79241C11.9823 4.60487 12.2367 4.49951 12.5019 4.49951C12.7671 4.49951 13.0215 4.60487 13.209 4.79241L17.7071 9.2905Z" fill="#888888"/>
<path id="Path 13 Copy 7 (Stroke)" fill-rule="evenodd" clip-rule="evenodd" d="M4.5 14C5.05228 14 5.5 14.4477 5.5 15V17C5.5 17.5523 5.94772 18 6.5 18H18.5C19.0523 18 19.5 17.5523 19.5 17V15C19.5 14.4477 19.9477 14 20.5 14C21.0523 14 21.5 14.4477 21.5 15V17C21.5 18.6569 20.1569 20 18.5 20H6.5C4.84315 20 3.5 18.6569 3.5 17V15C3.5 14.4477 3.94772 14 4.5 14Z" fill="#888888"/>
</g>
</svg>
